<svg xmlns="http://www.w3.org/2000/svg" viewBox="0 0 234 236" width="30" height="236">
	<style>
		tspan { white-space:pre }
		.shp0 { fill: #ffc734 } 
		.shp1 { fill: #ffffff } 
	</style>
	<g id="Layer 1">
		<g id="&lt;Group&gt;">
			<path id="&lt;Path&gt;" class="shp0" d="M220.37 189.43L0.05 162.14L13.03 57.4L233.34 84.7L220.37 189.43Z" />
			<g id="&lt;Group&gt;">
				<path id="&lt;Compound Path&gt;" fill-rule="evenodd" class="shp1" d="M180.53 76.77L186.2 171.46C186.33 173.61 184.73 175.47 182.59 175.68L179.1 176.02L179.1 184.04C179.1 186.25 177.31 188.04 175.1 188.04C172.89 188.04 171.1 186.25 171.1 184.04L171.1 176.79L164.57 177.43L164.57 184.04C164.57 186.25 162.78 188.04 160.57 188.04C158.36 188.04 156.57 186.25 156.57 184.04L156.57 178.2L147.68 179.06L146.68 204.77L171.99 210.51C173.57 210.87 174.78 212.15 175.05 213.75L177.89 230.58C178.08 231.74 177.76 232.93 177 233.83C176.24 234.73 175.12 235.25 173.94 235.25L123.65 235.25C121.44 235.25 119.65 233.46 119.65 231.25L119.65 177.37C119.65 175.31 121.21 173.59 123.26 173.39L139.96 171.77L140.28 163.51L91.61 161.62L92 171.77L108.7 173.39C110.75 173.59 112.32 175.31 112.32 177.37L112.32 231.25C112.32 233.46 110.53 235.25 108.32 235.25L58.02 235.25C56.85 235.25 55.73 234.73 54.97 233.83C54.21 232.93 53.88 231.74 54.08 230.58L56.91 213.75C57.18 212.15 58.39 210.87 59.97 210.51L85.28 204.77L84.28 179.06L75.39 178.2L75.39 184.04C75.39 186.25 73.6 188.04 71.39 188.04C69.18 188.04 67.39 186.25 67.39 184.04L67.39 177.43L60.86 176.79L60.86 184.04C60.86 186.25 59.07 188.04 56.86 188.04C54.65 188.04 52.86 186.25 52.86 184.04L52.86 176.02L49.37 175.68C47.23 175.47 45.64 173.61 45.77 171.46L51.44 76.77C51.53 75.25 52.48 73.91 53.88 73.32L69.55 66.76L71.55 45.95C71.76 43.84 73.57 42.23 75.69 42.33L96.28 43.13L98.6 15.69C98.7 14.6 99.23 13.59 100.09 12.9C100.95 12.22 102.05 11.91 103.13 12.06L144.48 17.74C145.56 17.89 146.54 18.48 147.18 19.37C147.82 20.26 148.07 21.38 147.86 22.45L143.57 44.97L161.9 45.68C164.02 45.76 165.71 47.48 165.75 49.6L166.09 68.3L178.08 73.32C179.49 73.91 180.44 75.25 180.53 76.77ZM104.28 43.44L135.49 44.65L139.21 25.09L106.22 20.56L104.28 43.44ZM140.59 155.51L144.11 64.95C144.16 63.64 144.85 62.44 145.95 61.73C147.05 61.03 148.44 60.91 149.65 61.42L158.03 64.93L157.82 53.52L142.06 52.91L134.37 93.24C134.01 95.15 132.34 96.49 130.45 96.49C130.26 96.49 130.08 96.48 129.9 96.46L95.96 91.8C93.86 91.51 92.34 89.62 92.52 87.5L95.6 51.11L79.15 50.47L77.93 63.25L82.32 61.42C83.53 60.91 84.91 61.03 86.01 61.73C87.12 62.44 87.81 63.64 87.86 64.95L91.3 153.6L140.59 155.51ZM62.75 227.25L86.15 227.25L85.6 212.9L64.36 217.72L62.75 227.25ZM104.32 208.65L93.53 211.1L94.16 227.25L104.32 227.25L104.32 208.65ZM92.32 179.84L93.22 202.97L104.32 200.45L104.32 181L92.32 179.84ZM83.59 161.31L64.79 160.58C63.69 160.54 62.66 160.05 61.93 159.22C61.21 158.39 60.86 157.3 60.96 156.2L68.68 75.8L59.27 79.74L53.98 168.09L83.97 170.99L83.59 161.31ZM69.33 152.75L83.28 153.29L80.09 71.02L77.06 72.29L69.33 152.75ZM100.81 84.39L127.22 88.02L133.97 52.6L103.61 51.42L100.81 84.39ZM158.19 73.67L151.88 71.02L148.58 155.82L159.7 156.26L158.19 73.67ZM127.65 227.25L137.81 227.25L138.43 211.1L127.65 208.65L127.65 227.25ZM146.37 212.9L145.81 227.25L169.21 227.25L167.61 217.72L146.37 212.9ZM138.75 202.96L139.64 179.84L127.65 181L127.65 200.45L138.75 202.96ZM147.99 170.99L177.98 168.09L172.69 79.74L166.25 77.04L167.78 160.34C167.8 161.44 167.36 162.5 166.58 163.27C165.83 164.01 164.82 164.42 163.78 164.42C163.73 164.42 163.67 164.41 163.62 164.41L148.27 163.82L147.99 170.99Z" />
				<path id="&lt;Compound Path&gt;" fill-rule="evenodd" class="shp1" d="M56.94 15.74C56.94 7.46 63.68 0.72 71.96 0.72C80.24 0.72 86.98 7.46 86.98 15.74C86.98 24.02 80.24 30.76 71.96 30.76C63.68 30.76 56.94 24.02 56.94 15.74ZM64.94 15.74C64.94 19.61 68.09 22.76 71.96 22.76C75.83 22.76 78.98 19.61 78.98 15.74C78.98 11.87 75.83 8.72 71.96 8.72C68.09 8.72 64.94 11.87 64.94 15.74Z" />
				<path id="&lt;Path&gt;" class="shp1" d="M186.68 12.55C185.24 10.87 182.72 10.67 181.04 12.11L173.25 18.76L166.59 10.97C165.16 9.29 162.63 9.09 160.96 10.53C159.28 11.96 159.08 14.49 160.51 16.17L167.17 23.96L159.38 30.61C157.7 32.05 157.5 34.57 158.94 36.25C159.73 37.18 160.85 37.65 161.98 37.65C162.9 37.65 163.82 37.34 164.57 36.69L172.36 30.04L179.02 37.83C179.81 38.75 180.93 39.23 182.06 39.23C182.98 39.23 183.91 38.91 184.66 38.27C186.34 36.83 186.54 34.31 185.1 32.63L178.45 24.84L186.23 18.19C187.91 16.75 188.11 14.23 186.68 12.55Z" />
			</g>
		</g>
	</g>
</svg>
<svg xmlns="http://www.w3.org/2000/svg" viewBox="0 0 279 79" width="100" height="79">
	<style>
		tspan { white-space:pre }
	</style>
	<g id="Layer 2">
		<g id="&lt;Group&gt;">
			<g id="&lt;Group&gt;">
				<path id="&lt;Path&gt;" class="shp1" d="M115.29 10.57L106.53 10.57L106.53 18.56L102.1 18.56L102.1 25.59L106.53 25.59L106.53 57.08C106.53 62.73 109.55 65.55 115.58 65.55L121.74 65.55L121.74 58.14L118.08 58.14C116.93 58.14 116.17 57.96 115.82 57.61C115.47 57.26 115.29 56.5 115.29 55.34L115.29 25.59L121.74 25.59L121.74 18.56L115.29 18.56L115.29 10.57Z" />
				<path id="&lt;Compound Path&gt;" fill-rule="evenodd" class="shp1" d="M154.32 27.13L154.32 43.19C154.32 44.56 153.2 45.67 151.83 45.67L135.35 45.67L135.35 55.92C135.35 57.02 135.54 57.75 135.92 58.14C136.31 58.52 137.08 58.72 138.23 58.72L142.66 58.72C143.82 58.72 144.59 58.52 144.97 58.14C145.36 57.75 145.55 56.98 145.55 55.83L145.55 51.21L154.02 51.21L154.02 57.08C154.02 62.73 151.04 65.55 145.07 65.55L135.83 65.55C129.86 65.55 126.87 62.73 126.87 57.08L126.87 27.13C126.87 21.42 129.86 18.56 135.83 18.56L145.26 18.56C151.3 18.56 154.32 21.42 154.32 27.13ZM145.75 28.19C145.75 27.1 145.57 26.36 145.22 25.98C144.86 25.59 144.11 25.4 142.95 25.4L138.23 25.4C137.08 25.4 136.31 25.59 135.92 25.98C135.54 26.36 135.35 27.1 135.35 28.19L135.35 38.88L145.75 38.88L145.75 28.19Z" />
				<path id="&lt;Compound Path&gt;" fill-rule="evenodd" class="shp1" d="M262.6 27.03L262.6 63.07C262.6 64.44 261.49 65.55 260.12 65.55L244.21 65.55C238.17 65.55 235.2 62.69 235.2 56.98L235.2 47.23C235.42 42 238.36 39.36 244.11 39.36L254.12 39.36L254.12 28.19C254.12 27.1 253.93 26.36 253.55 25.98C253.16 25.59 252.39 25.4 251.24 25.4L246.81 25.4C245.65 25.4 244.88 25.59 244.5 25.98C244.11 26.36 243.92 27.13 243.92 28.29L243.92 32.9L235.45 32.9L235.45 27.03C235.45 21.39 238.43 18.56 244.4 18.56L253.65 18.56C259.61 18.56 262.6 21.39 262.6 27.03ZM254.12 46.19L246.52 46.19C245.36 46.19 244.59 46.39 244.21 46.78C243.95 47.03 243.73 47.63 243.73 48.11L243.73 55.92C243.73 57.01 243.91 57.75 244.26 58.14C244.61 58.52 245.36 58.71 246.52 58.71L254.12 58.71L254.12 46.19Z" />
				<path id="&lt;Path&gt;" class="shp1" d="M177.04 38.88L172.03 38.88C170.87 38.88 170.1 38.71 169.72 38.35C169.33 38 169.14 37.24 169.14 36.09L169.14 28C169.14 26.85 169.33 26.09 169.72 25.74C170.1 25.38 170.87 25.21 172.03 25.21L174.34 25.21C175.5 25.21 176.27 25.38 176.65 25.74C177.04 26.09 177.23 26.85 177.23 28L177.23 32.9L185.7 32.9L185.7 27.13C185.7 21.42 182.69 18.56 176.65 18.56L169.62 18.56C163.65 18.56 160.67 21.42 160.67 27.13L160.67 37.05C160.67 42.7 163.65 45.52 169.62 45.52L174.53 45.52C175.69 45.52 176.46 45.7 176.84 46.05C177.23 46.41 177.42 47.16 177.42 48.31L177.42 56.11C177.42 57.27 177.23 58.02 176.84 58.38C176.46 58.73 175.69 58.91 174.53 58.91L172.22 58.91C171.07 58.91 170.3 58.73 169.91 58.38C169.53 58.02 169.33 57.27 169.33 56.11L169.33 51.21L160.86 51.21L160.86 57.08C160.86 62.73 163.85 65.55 169.82 65.55L176.94 65.55C182.91 65.55 185.9 62.73 185.9 57.08L185.9 47.45C185.9 41.74 182.94 38.88 177.04 38.88Z" />
				<path id="&lt;Path&gt;" class="shp1" d="M203.36 10.57L194.6 10.57L194.6 18.56L190.17 18.56L190.17 25.59L194.6 25.59L194.6 57.08C194.6 62.73 197.62 65.55 203.65 65.55L209.81 65.55L209.81 58.14L206.15 58.14C205 58.14 204.24 57.96 203.89 57.61C203.54 57.26 203.36 56.5 203.36 55.34L203.36 25.59L209.81 25.59L209.81 18.56L203.36 18.56L203.36 10.57Z" />
				<path id="&lt;Path&gt;" class="shp1" d="M222.98 55.88C220.03 55.88 217.65 58.27 217.65 61.21C217.65 64.16 220.03 66.54 222.98 66.54C225.92 66.54 228.31 64.16 228.31 61.21C228.31 58.27 225.92 55.88 222.98 55.88Z" />
				<path id="&lt;Path&gt;" class="shp1" d="M268.95 65.55L277.62 65.55L277.62 18.56L268.95 18.56L268.95 65.55Z" />
				<path id="&lt;Path&gt;" class="shp1" d="M273.28 11.35C276.15 11.35 278.47 9.02 278.47 6.16C278.47 3.29 276.15 0.97 273.28 0.97C270.42 0.97 268.09 3.29 268.09 6.16C268.09 9.02 270.42 11.35 273.28 11.35Z" />
				<path id="&lt;Compound Path&gt;" fill-rule="evenodd" class="shp1" d="M23.49 5.11L34.96 65.42L26.19 65.42L23.78 51.45L11.06 51.45L8.85 65.42L0.17 65.42L10.87 5.11L23.49 5.11ZM22.62 44.42L17.13 12.63L12.12 44.42L22.62 44.42Z" />
				<path id="&lt;Compound Path&gt;" fill-rule="evenodd" class="shp1" d="M65.51 26.98L65.51 56.95C65.51 62.6 62.58 65.42 56.74 65.42L47.4 65.42L47.4 78.72L38.72 78.72L38.72 18.4L56.74 18.4C62.58 18.4 65.51 21.26 65.51 26.98ZM56.83 28.23C56.83 27.08 56.64 26.32 56.26 25.97C55.87 25.61 55.1 25.44 53.95 25.44L47.4 25.44L47.4 58.39L53.95 58.39C55.1 58.39 55.87 58.21 56.26 57.86C56.64 57.51 56.83 56.75 56.83 55.6L56.83 28.23Z" />
				<path id="&lt;Compound Path&gt;" fill-rule="evenodd" class="shp1" d="M97.78 26.98L97.78 56.95C97.78 62.6 94.85 65.42 89.01 65.42L79.66 65.42L79.66 78.72L70.99 78.72L70.99 18.4L89.01 18.4C94.85 18.4 97.78 21.26 97.78 26.98ZM89.1 28.23C89.1 27.08 88.91 26.32 88.53 25.97C88.14 25.61 87.37 25.44 86.22 25.44L79.66 25.44L79.66 58.39L86.22 58.39C87.37 58.39 88.14 58.21 88.53 57.86C88.91 57.51 89.1 56.75 89.1 55.6L89.1 28.23Z" />
			</g>
		</g>
	</g>
</svg>